<svg xmlns="http://www.w3.org/2000/svg" xmlns:xlink="http://www.w3.org/1999/xlink" viewBox="0 0 1980 1080" enable-background="new 0 0 1980 1080">
	
	<style type="text/css">
	.water {
		fill: #2EBEF2;
	}
	.land {
		fill: #7AC943;
		stroke: #7AC943;
		stroke-width: 2;
		stroke-linecap: round;
		stroke-linejoin: round;
		stroke-miterlimit: 10;
	}
	.land--south-america {
		clip-path: url(#south-america-clip);
	}
	.land--north-america {
		clip-path: url(#north-america-clip);
	}
	</style>
	<!-- TODO: Convert to <Circle>  -->
	<path class="water" d="M724.74 69.55c-12.74 7.2-25.15 14.9-37.22 23.07 12.2-5.84 24.36-12.3 34.77-21.11.84-.64 1.65-1.3 2.45-1.96zM990.01 0c-96.41 0-186.91 25.28-265.26 69.55-.8.67-1.62 1.32-2.46 1.96-10.4 8.8-22.56 15.27-34.77 21.11-68.28 46.26-125.42 107.71-166.52 179.53-45.17 78.93-71 170.38-71 267.86 0 298.23 241.76 539.99 540.01 539.99s539.99-241.76 539.99-539.99-241.76-540.01-539.99-540.01z"/>
		
	<g class="land">
		<path class="land--cuba" d="M1250.8 594.19c11.48-8.14 29.06-7.92 37.26-27.22-53.32-15.15-98.5 13.01-146.93 13.41 14.24 22.12 29.24 21.24 49.04 13.03 17.76-7.36 38.55-12.35 57.22 1.49M1411.22 525.16c-29.78 16.9-59.55 33.78-89.32 50.7-1.12.64-2.05 1.59-3.07 2.4l2.06 1.35"/>

		<path class="land--south-america" d="M1678.85 594.34c-23.03-19.26-41.33-1.11-53.64 12.34-12.32 13.46-25.78 21.66-40.02 29.84-36.46-31.91-47.26-32-80.05-2.58-7.73 6.93-14.49 16.37-24.44 19.43-30.63 9.45-62.81 7.81-92.45 1.39-12.78-2.76-7.72-3.74-18.1-2.76-23.76 2.24-33.99 34.96-60.41 36.77-9.45.65-13.8 8.54-14.33 14.02-1.77 18.36-2.74 36.59-6.32 54.92-2.46 12.58 14.69 12.68 21.25 20.47-17.04 44.02-37.35 86.71-62.63 126.94-17.46 60.99 52.68 81.78 52.68 81.78 22.44 9.37 49.68-13.55 71.02 9.76-4.7 10.02-8.62 19.26-13.25 28.12-20.78 39.77-42.42 81.03-78.06 107.67"/>

		<path class="land--north-america" d="M921.36-303.91c-5.32 10.19-23.16.59-23.92 17.99 14.42 22.65 35.95 28.45 64.76 24.27 27.66-4 55.11 6.02 81.3 14.92 12.58 4.27 23.48 10.57 37.97 9.91 23.11-1.04 37 9.47 32.51 35.55-2.75 16.05 6.05 30.74 15.97 38.76 20.97 16.93 45.66 29.24 68.83 43.45l-18.52-3.28c-33.45 17.62-63.94 15.21-94.95-8.38-28.93-22.02-59.43-44.16-99.9-36.67-6.87 1.27-17.35.49-19.95 4.61-25 39.41-54.32 4.99-83.57 12.9 4.6-18-2.91-30.01 8.42-42.66 26.53 1.91 55.48 2.45 83.94 6.45 29.72 4.18 73.28 67.39 75.09 98.26.95 16.21-8.95 27.96-16.35 26.94-24.72-3.4-52.98 9.39-73.99-12.06-9.02-9.21-14.3-2.11-21.54.93-7.86 3.3-10.59 7.8-7.41 15.99 4.52 11.62 11.25 8.71 18.58 3.26l-19.8 7.68c-27.46 7.63-44.9 26.66-57.06 51.16-13.92 28.03-1.2 48.44 29.57 58.7 24.54 8.18 47.67 16.34 73.62 9.02 16.89-4.76 20.35 11.89 24.58 20.07 7.77 15.05 16.72 26.5 32.38 33.89 3.57-16.25.07-31.03-5.66-43.06-6.41-13.5-9.66-23.95.49-36.04 4.51-5.37 3.15-9.9-2.76-13.67-24.38-15.57-29.35-42.53-38.96-66.95 27.22-10.19 53.04-11.05 76.94 9.05 15.04 12.64 28.82 13.41 38.41-10.42 27.32 19.69 55.12 36.37 89.01 41.69 27.8 4.37 33.75 23.04 21.27 48.65-8.37 17.19-34.42 32.02-9.66 55.55 33.75-16.72 31.41-55.94 50.28-81.99 14.66 7.66 29.34 15.28 44.02 22.92l10.26-2.13c-9.79 4.41-19.87 8.27-29.25 13.41-7.72 4.24-21.24 14.02-20.96 14.48 21.9 35.84-28.02 57.01-17.8 91.27-12.9 10.86-40.11-2.52-44.65 22.21-1.53 8.32-6.9 21.86 8.47 26.52l16.38-6.98c-29.57 20.59-56.27 42.61-58.5 83.26-.35 6.35-6.14 10.85.83 18.07 20.42 21.13 15.39 42.6-.5 64.28-11.2 15.27-20.98 31.59-30.39 45.92 10.41 36.7 51.19 60.66 34.1 102.73-35.15-7.02-36.06-45.8-63.57-64.56-22.49 27.25-70.94 11.24-86.49 53.21-34.58-14.57-87.66 17.04-92.04 54.8-6.6 56.97 13.2 90.36 65.92 111.13 35.32 13.91 54.81 1.26 56.56-36.73.22-4.79.38-9.59.58-14.38 47.46-19.56 50.28-17.4 57.42 34.45 2.85 20.76 11.68 36.32 38.36 31.63 22.67-3.98 37.72 7.8 38.1 30.83.66 39.07 25.11 47.61 56.95 48.87l2.42-2.29s12.23-8.49 17.27-9.55 28.76-9.83 27.59-3.64c-1.16 6.19 8.97 12.84 8.97 12.84s-17.85 3.36-26.86 3.84c-9.01.48-23.85 8.35-23.85 8.35-7.7 14.5-21.92 13.52-33.32 10.02-30.27-9.29-66.48-8.13-84.03-42.68-6.06-11.93-15.48-11.7-26.83-8.85-28.37 7.12-56.39 8.38-80.74-11.71-7.39-6.1-16.05-6.58-21.8-2.08-40.21 31.57-78.02 1.4-115.08-6.25-42.07-8.69-71.28-38.75-85.04-80.94-6.23-19.11-20.67-27.14-38.69-31.18l-8.26-5.42c-13.76-9.95-18.55-29.02-35.89-35.34l-37.44-59.99c15.48 29.6 38.48 56.02 40.24 91.47.64 12.91 11.7 14.79 18.75 21.18 9.81 8.9 24.81 16.66 7.13 33.08-41-14.05-51.98-58.16-75.2-90.73-14.15-19.85-25.87-42.36-30.13-68.29-3.02-18.39-12.69-39.23-33.29-41.58-11.36-1.29-14.52-8.8-15.65-12.49-16.71-54.19-38.5-108.32-10.25-165.48 26.44-53.49-.7-111.08-55.12-132.62-20.08-7.94-43.29-23.67-48.1-52.78-5.06-30.62-61.75-50.39-89.09-35.55-25.96 14.1-54.32 23.78-81.63 35.41l61.38-30.53c-2.22-15.69-21.29-14.27-26.49-25.28 4.48-33.79 7.86-67.94 56-55.77.63-7.21 15.09-2.23 11.56-13.1-3.48-12.74-21.34-3.51-25.4-18.39 5.2-8.83 6.51-23.11 25.21-17.57 6.43 1.9 18.47 2.41 20.44-.9 20.98-35.25 51.19-21.61 79.23-15.56 14.67 3.17 28.47 10.36 42.67 15.72l-25.46-19.66c12.23-21.29 35.91-1.51 50.57-14.09l18.52 3.28c30.78-10.4 60.51-31.83 95.78-6.36-6.66 13.02 4.85 27.76 2.45 44.82-41.51-7.46-83.19-8.05-113.7-42.12-9.13-10.19-20.12-26.27-35.78-20.45-19.02 7.07-35.9 1.92-53.73-.43l-34.9 3.69c40.5-8.65 76.8-26.91 96.66-63.49 25.13-46.28 81.2-52.99 110.17-93.17 3.02-4.18 13.18-3.16 20-4.64 47.28-10.29 93.34-24.16 136.62-46.23l6.12-4.84c23.45 12.2 47.6 21.64 74.76 16.48 22.84-4.33 37.96 19.45 60.4 16.04"/>
	</g>
	<!-- TODO: Make Singular Circular Clip -->
	<clipPath id="north-america-clip">
		<path d="M990.01 0c-96.41 0-186.91 25.28-265.26 69.55-.8.67-1.62 1.32-2.46 1.96-10.4 8.8-22.56 15.27-34.77 21.11-68.28 46.26-125.42 107.71-166.52 179.53-45.17 78.93-71 170.38-71 267.86 0 298.23 241.76 539.99 540.01 539.99s539.99-241.76 539.99-539.99-241.76-540.01-539.99-540.01z"/>
	</clipPath>
	<clipPath id="south-america-clip">
		<path d="M990.01 0c-96.41 0-186.91 25.28-265.26 69.55-.8.67-1.62 1.32-2.46 1.96-10.4 8.8-22.56 15.27-34.77 21.11-68.28 46.26-125.42 107.71-166.52 179.53-45.17 78.93-71 170.38-71 267.86 0 298.23 241.76 539.99 540.01 539.99s539.99-241.76 539.99-539.99-241.76-540.01-539.99-540.01z"/>
	</clipPath>
</svg>